<?xml version="1.0" encoding="UTF-8" standalone="no"?>
<svg
   xmlns:dc="http://purl.org/dc/elements/1.1/"
   xmlns:cc="http://creativecommons.org/ns#"
   xmlns:rdf="http://www.w3.org/1999/02/22-rdf-syntax-ns#"
   xmlns:svg="http://www.w3.org/2000/svg"
   xmlns="http://www.w3.org/2000/svg"
   xmlns:xlink="http://www.w3.org/1999/xlink"
   height="56.400002"
   width="203.8"
   xml:space="preserve"
   viewBox="0 0 203.8 56.400003"
   y="0px"
   x="0px"
   id="Lager_1"
   version="1.1"><metadata
     id="metadata3781"><rdf:RDF><cc:Work
         rdf:about=""><dc:format>image/svg+xml</dc:format><dc:type
           rdf:resource="http://purl.org/dc/dcmitype/StillImage" /><dc:title></dc:title></cc:Work></rdf:RDF></metadata><defs
     id="defs3779" /><style
     id="style3750"
     type="text/css">
	.st0{clip-path:url(#SVGID_2_);}
	.st1{fill:#1C2E48;}
</style><g
     transform="translate(-39.200001,-36.299995)"
     id="g3774"><defs
       id="defs3753"><rect
         height="75.800003"
         width="227.7"
         y="26.5"
         x="27.5"
         id="SVGID_1_" /></defs><clipPath
       id="SVGID_2_"><use
         height="100%"
         width="100%"
         y="0"
         x="0"
         id="use3755"
         style="overflow:visible"
         xlink:href="#SVGID_1_" /></clipPath><g
       id="g3772"
       clip-path="url(#SVGID_2_)"
       class="st0"><rect
         style="fill:#1c2e48"
         id="rect3758"
         height="5.0999999"
         width="71.199997"
         class="st1"
         y="41.599998"
         x="42.700001" /><rect
         style="fill:#1c2e48"
         id="rect3760"
         height="5.0999999"
         width="71.199997"
         class="st1"
         y="51.599998"
         x="42.700001" /><path
         style="fill:#1c2e48"
         id="path3762"
         d="m 141,41.6 c 4.7,0 21.6,0.5 21.6,22.6 0,22.4 -16.2,22.9 -23.9,22.9 H 124.3 V 41.6 Z M 130.4,82 h 8.5 c 11.7,0 17.2,-5.5 17.2,-17.6 0,-13.8 -7.7,-17.6 -15.5,-17.6 H 130.3 V 82 Z"
         class="st1" /><path
         style="fill:#1c2e48"
         id="path3764"
         d="m 209.3,72.7 c -0.2,6 4.7,10.7 13,10.7 8.1,0 11.2,-4.1 11.2,-8.4 0,-5.6 -4.9,-7.1 -9.2,-8 -10.4,-2.3 -19.6,-3.1 -19.6,-13.6 0,-8.6 7,-13.1 17.2,-13.1 11.2,0 16.3,6.2 16.8,13.2 h -6.1 c -0.8,-7.5 -8,-8.1 -10.9,-8.1 -6.3,0 -10.5,2.9 -10.5,7.6 0,5.5 5.4,6.4 11.4,7.6 8.1,1.6 17.4,3.2 17.4,14.2 0,13.6 -14.2,13.7 -18,13.7 -6.5,0 -18.1,-1.4 -18.8,-15.8 z"
         class="st1" /><path
         style="fill:#1c2e48"
         id="path3766"
         d="m 199.6,46.7 v -5.1 h -22.3 v 0 h -5.1 c 0,0 -0.1,0 -0.1,0 -1.7,0 -3.1,1.4 -3.1,3.2 v 4.2 0 38.2 h 6.1 V 66.7 h 21.4 V 61.6 H 175.1 V 46.7 Z"
         class="st1" /><path
         style="fill:#1c2e48"
         id="path3768"
         d="m 112.8,62.8 c -4,0 -6,2.3 -7.6,4.1 -1.3,1.5 -2.1,2.5 -3.9,2.5 -1.8,0 -2.6,-0.9 -3.9,-2.5 -1.6,-1.8 -3.6,-4.1 -7.6,-4.1 -4,0 -6,2.3 -7.6,4.1 -1.3,1.5 -2.1,2.5 -3.9,2.5 -1.8,0 -2.6,-0.9 -3.9,-2.5 -1.6,-1.8 -3.6,-4.1 -7.6,-4.1 -4,0 -6,2.3 -7.6,4.1 -1.3,1.5 -2.1,2.5 -3.9,2.5 -1.8,0 -2.6,-0.9 -3.9,-2.5 -1.6,-1.8 -3.6,-4.1 -7.5,-4.1 h -1.2 v 4.9 h 1.2 c 1.6,0 2.4,0.8 3.8,2.4 1.6,1.8 3.6,4.1 7.6,4.1 4,0 6,-2.3 7.6,-4.1 1.3,-1.5 2.1,-2.5 3.9,-2.5 1.8,0 2.6,0.9 3.9,2.5 1.6,1.8 3.6,4.1 7.6,4.1 4,0 6,-2.3 7.6,-4.1 1.3,-1.5 2.1,-2.5 3.9,-2.5 1.8,0 2.6,0.9 3.9,2.5 1.6,1.8 3.6,4.1 7.6,4.1 4,0 6,-2.3 7.6,-4.1 1.3,-1.5 2.1,-2.5 3.9,-2.5 h 1.2 v -4.9 h -1.2 z"
         class="st1" /><path
         style="fill:#1c2e48"
         id="path3770"
         d="m 112.8,75.6 c -4,0 -6,2.3 -7.6,4.1 -1.3,1.5 -2.1,2.5 -3.9,2.5 -1.8,0 -2.6,-0.9 -3.9,-2.5 -1.6,-1.8 -3.6,-4.1 -7.6,-4.1 -4,0 -6,2.3 -7.6,4.1 -1.3,1.5 -2.1,2.5 -3.9,2.5 -1.8,0 -2.6,-0.9 -3.9,-2.5 -1.6,-1.8 -3.6,-4.1 -7.6,-4.1 -4,0 -6,2.3 -7.6,4.1 -1.3,1.5 -2.1,2.5 -3.9,2.5 -1.8,0 -2.6,-0.9 -3.9,-2.5 -1.6,-1.8 -3.6,-4.1 -7.5,-4.1 h -1.2 v 4.9 h 1.2 c 1.6,0 2.4,0.8 3.8,2.4 1.6,1.8 3.6,4.1 7.6,4.1 4,0 6,-2.3 7.6,-4.1 1.3,-1.5 2.1,-2.5 3.9,-2.5 1.8,0 2.6,0.9 3.9,2.5 1.6,1.8 3.6,4.1 7.6,4.1 4,0 6,-2.3 7.6,-4.1 1.3,-1.5 2.1,-2.5 3.9,-2.5 1.8,0 2.6,0.9 3.9,2.5 1.6,1.8 3.6,4.1 7.6,4.1 4,0 6,-2.3 7.6,-4.1 1.3,-1.5 2.1,-2.5 3.9,-2.5 h 1.2 v -4.9 h -1.2 z"
         class="st1" /></g></g><rect
     style="fill:none"
     y="3.1353798"
     x="1.5721664"
     height="50.96521"
     width="201.18726"
     id="rect3783" /><rect
     y="-11.599998"
     x="-16.200001"
     height="76"
     width="190"
     id="rect3808"
     style="fill:none" /><rect
     y="0"
     x="0"
     height="56.400002"
     width="203.8"
     id="rect3810"
     style="fill:none" /></svg>